<svg id="Camada_1" data-name="Camada 1" xmlns="http://www.w3.org/2000/svg" viewBox="0 0 25 25"><defs><style>.cls-1{fill:#fff;}</style></defs><title>botao-email</title><path class="cls-1" d="M12.5,25.09A12.5,12.5,0,1,1,25,12.59,12.51,12.51,0,0,1,12.5,25.09ZM12.5.74A11.85,11.85,0,1,0,24.35,12.59,11.86,11.86,0,0,0,12.5.74Zm7,16.06H5.55a.33.33,0,0,1-.33-.33l0-7.39h0V8.74H19.8v7.73A.33.33,0,0,1,19.46,16.8ZM5.88,16.13H19.14V9.81L12.75,15a.33.33,0,0,1-.41,0L5.86,9.75ZM6.46,9.4l6.09,4.91L18.62,9.4Z" transform="translate(0 -0.09)"/></svg>