<?xml version="1.0" encoding="utf-8"?>
<!-- Generator: Adobe Illustrator 21.1.0, SVG Export Plug-In . SVG Version: 6.00 Build 0)  -->
<svg version="1.1" id="Camada_1" xmlns="http://www.w3.org/2000/svg" xmlns:xlink="http://www.w3.org/1999/xlink" x="0px" y="0px"
	 viewBox="0 0 1280 1024" style="enable-background:new 0 0 1280 1024;" xml:space="preserve">
<style type="text/css">
	.st0{fill:#FFFFFF;}
	.st1{fill:#952631;}
</style>
<g>
	<circle class="st0" cx="640" cy="512" r="27"/>
	<path class="st1" d="M640,541c-16,0-29-13-29-29c0-16,13-29,29-29c16,0,29,13,29,29C669,528,656,541,640,541z M640,487
		c-13.8,0-25,11.2-25,25s11.2,25,25,25s25-11.2,25-25S653.8,487,640,487z"/>
</g>
<g>
	<polygon class="st1" points="640,519.4 630.3,510.7 631.7,509.3 640,516.6 647.8,508.8 649.2,510.2 	"/>
</g>
</svg>
