<svg id="Camada_1" data-name="Camada 1" xmlns="http://www.w3.org/2000/svg" viewBox="0 0 25 25"><defs><style>.cls-1{fill:#fff;}</style></defs><title>botao-telefone</title><path class="cls-1" d="M12.5,25.09A12.5,12.5,0,1,1,25,12.59,12.51,12.51,0,0,1,12.5,25.09ZM12.5.74A11.85,11.85,0,1,0,24.35,12.59,11.86,11.86,0,0,0,12.5.74Zm2.28,18.88a3.62,3.62,0,0,1-2-.51l-.07-.05a11.78,11.78,0,0,1-3.62-3.89A15.62,15.62,0,0,1,7.38,10a4.35,4.35,0,0,1,.36-2.33,3.61,3.61,0,0,1,2.2-2,1.55,1.55,0,0,1,.73,0l.9.34a.87.87,0,0,1,.45.71c0,.29.1,2.37.1,2.53a1.12,1.12,0,0,1-.48,1.06c-.36.22-1.08.61-1.08.61s0,.05,0,.1a9.46,9.46,0,0,0,.79,2.4,7.5,7.5,0,0,0,1.61,2.1c.2.16.21.15.43,0l.07,0,1.11-.67a.8.8,0,0,1,1,.16c.29.3,1.63,1.7,1.83,1.92a.65.65,0,0,1,.23.74l0,.09a2.44,2.44,0,0,1-1.31,1.66A3.4,3.4,0,0,1,14.78,19.62ZM10.38,6.21l-.32,0c-1,.2-1.57,1.33-1.74,1.67a3.73,3.73,0,0,0-.29,2,15.22,15.22,0,0,0,1.65,5,11.18,11.18,0,0,0,3.43,3.66l.07.05a3.37,3.37,0,0,0,2.8.15,1.79,1.79,0,0,0,1-1.25l0-.11v0l-.06,0s-1.52-1.61-1.84-1.93c-.12-.12-.2-.07-.2-.07L13.75,16l-.06,0A.87.87,0,0,1,12.51,16a8.14,8.14,0,0,1-1.78-2.31,10.17,10.17,0,0,1-.85-2.58.7.7,0,0,1,.4-.81s.67-.36,1-.57c.15-.09.18-.25.17-.47s-.09-2.23-.1-2.52a.22.22,0,0,0-.09-.17l-.84-.31Z" transform="translate(0 -0.09)"/></svg>