<?xml version="1.0" encoding="utf-8"?>
<!-- Generator: Adobe Illustrator 21.1.0, SVG Export Plug-In . SVG Version: 6.00 Build 0)  -->
<svg version="1.1" id="Camada_1" xmlns="http://www.w3.org/2000/svg" xmlns:xlink="http://www.w3.org/1999/xlink" x="0px" y="0px"
	 viewBox="0 0 178 170.8" style="enable-background:new 0 0 178 170.8;" xml:space="preserve">
<style type="text/css">
	.st0{fill:#FFFFFF;}
</style>
<g>
	<g>
		<path class="st0" d="M178,91.8c0,2.4,0,4.9-0.6,7.9s-1.2,4.3-1.8,4.3c0,0-0.6,0-0.6-0.6s0-0.6,0-1.2c1.2-3,1.8-6.7,1.8-10.3
			c0-6.1-1.8-10.9-5.5-14.6c-3.6-3.6-8.5-5.5-14.6-5.5c-11.5,0-23.1,5.5-34,17c4.3,7.9,6.1,15.8,6.1,24.9c0,15.8-6.1,29.8-18.2,40.7
			s-27.3,16.4-45,16.4c-5.5,0-12.8-0.6-22.5-2.4c-8.5,1.2-16.4,2.4-23.7,2.4c-12.8,0-19.4-1.2-19.4-3.6c0-1.2,1.8-2.4,4.9-3.6
			s6.7-1.2,10.9-1.2c4.9,0,15.2,1.8,30.4,4.9c10.3-2.4,18.2-6.7,24.3-12.8c5.5-5.5,14.6-17.6,26.1-36.5
			c7.3-11.5,15.2-21.3,23.7-29.2c-7.3-12.2-18.8-18.2-34.6-18.2c-16.4,0-31.6,6.7-45.6,19.4c-6.7,6.7-12.2,14-16.4,21.9
			s-6.1,15.2-6.1,21.9c0,5.5,1.8,9.7,4.9,12.8c3,3,7.9,4.9,13.4,4.9c9.1,0,18.8-4.9,29.2-15.2c9.7-10.3,15.2-19.4,15.2-29.2
			c0-3.6-1.2-6.1-3-8.5s-4.3-3-7.9-3c-3.6,0-5.5,0.6-5.5,1.8c0,0.6,0,0.6,0.6,0.6H65h1.2c2.4,0,3.6,1.2,3.6,3c0,1.8-0.6,3-1.8,4.3
			c-1.2,1.2-2.4,1.8-4.3,1.8c-3,0-4.3-1.8-4.3-4.9c0-2.4,1.2-4.3,3-5.5c1.8-1.8,4.3-2.4,7.3-2.4c3.6,0,6.7,1.2,8.5,3.6
			c2.4,2.4,3,5.5,3,9.1c0,9.7-4.9,20.1-15.2,30.4s-20.1,15.2-30.4,15.2c-6.7,0-12.2-2.4-17-6.7c-4.3-4.3-6.7-10.3-6.7-17.6
			c0-15.2,7.3-28.6,22.5-40.7s31.6-18.2,50.4-18.2c15.8,0,28,6.1,36.5,17.6C133.7,76,145.2,70.5,158,70.5c6.1,0,10.9,1.8,15.2,6.1
			C176.2,79.6,178,85.1,178,91.8z M40.1,167.1c-13.4-1.8-23.7-3-30.4-3c-6.1,0-8.5,0.6-8.5,1.8c0,1.8,6.1,2.4,18.8,2.4
			C28,168.9,34.6,168.3,40.1,167.1z M124.6,107.6c0-6.1-1.2-12.2-3.6-17.6c-6.7,7.3-12.8,17-17.6,28.6c-6.7,15.2-14,26.1-21.3,32.2
			c-7.3,6.7-18.8,12.2-33.4,16.4c6.1,1.2,12.8,1.8,19.4,1.8c18.8,0,34-9.1,45.6-27.3C120.9,130,124.6,118.5,124.6,107.6z"/>
	</g>
	<g>
		<path class="st0" d="M92.4,4.3c0,3.6,0,7.9,0,12.2v22.5c0,7.9,0,12.8,0.6,13.4c0.6,1.2,1.8,1.2,4.9,1.2h3v2.4c-4.9,0-8.5,0-10.9,0
			c-2.4,0-6.7,0-12.8,0v-1.2h3.6c1.8,0,3,0,3-0.6c0.6-0.6,0.6-1.2,1.2-2.4c0-1.2,0-4.9,0.6-11.5V18.2V9.7c0-3.6-0.6-5.5-1.2-6.1
			C83.9,3,82,2.4,79.6,2.4h-3V0c3,0,7.3,0,12.8,0c3,0,6.1,0,9.7,0c2.4,0,4.3,0,5.5,0c6.7,0,10.9,1.2,14,3.6c3,2.4,4.3,5.5,4.3,9.7
			c0,3-0.6,5.5-2.4,8.5c-1.8,2.4-4.3,4.9-7.3,6.7c-3,1.8-6.1,2.4-9.7,2.4c-1.8,0-3.6,0-6.1-0.6l-0.6-3c2.4,0.6,4.3,0.6,6.1,0.6
			c3.6,0,6.7-1.2,8.5-3c2.4-2.4,3-5.5,3-9.1s-1.2-6.7-3.6-8.5c-2.4-1.8-5.5-3-10.3-3C98.4,3,95.4,3.6,92.4,4.3z"/>
		<path class="st0" d="M145.2,155h2.4c2.4,0,4.3-0.6,4.3-1.8c0.6-1.2,0.6-6.7,0.6-17v-13.4c0-10.3,0-16.4-0.6-17.6
			c-0.6-1.2-1.8-1.8-3.6-1.8h-3v-2.4c4.3,0,8.5,0,13.4,0c3.6,0,6.7,0,9.7,0v2.4h-3c-1.8,0-3,0-3.6,0.6c-0.6,0.6-0.6,1.8-0.6,3.6
			c0,3,0,7.9,0,15.2v14c0,10.3,0,15.8,0.6,17c0.6,1.2,1.8,1.8,4.3,1.8h2.4v2.4c-3,0-6.7,0-10.9,0c-4.3,0-8.5,0-12.2,0L145.2,155
			L145.2,155z"/>
	</g>
</g>
</svg>
